<svg width="176" height="50" viewBox="0 0 176 50" fill="none" xmlns="http://www.w3.org/2000/svg">
<path d="M34.929 2.07163H12.8849L1.96136 1.62305L5.22686 12.7717L6.98912 18.9685L12.1283 23.4916H24.0242L34.929 2.07163Z" fill="#1A341B"/>
<path d="M34.929 2.07163H12.8849L1.96136 1.62305L5.22686 12.7717L6.98912 18.9685L12.1283 23.4916H24.0242L34.929 2.07163Z" fill="#1A341B"/>
<path d="M2.33994 8.26892L1.41827 47.4765L24.0044 47.0093L2.33994 8.26892Z" fill="#1A341B"/>
<path d="M2.33994 8.26892L1.41827 47.4765L24.0044 47.0093L2.33994 8.26892Z" fill="#1A341B"/>
<path d="M1.41827 4.32214V23.9449H13.1894L1.41827 4.32214Z" fill="#F2600C"/>
<path d="M1.41827 4.32214V23.9449H13.1894L1.41827 4.32214Z" fill="#F2600C"/>
<path d="M16.5954 47.1381H38.6396L44.344 42.9335L46.297 36.4375L44.5347 30.2407L39.3961 25.7181H27.5002L16.5954 47.1381Z" fill="#1A341B"/>
<path d="M16.5954 47.1381H38.6396L44.344 42.9335L46.297 36.4375L44.5347 30.2407L39.3961 25.7181H27.5002L16.5954 47.1381Z" fill="#1A341B"/>
<path d="M47.8773 3.80762L48.1893 23.428L36.4194 23.6153L47.8773 3.80762Z" fill="#1A341B"/>
<path d="M47.8773 3.80762L48.1893 23.428L36.4194 23.6153L47.8773 3.80762Z" fill="#1A341B"/>
<path d="M47.69 40.3289V48.0861H40.4024L47.69 40.3289Z" fill="#F2600C"/>
<path d="M47.69 38.9694V48.0861H40.4024L47.69 38.9694Z" fill="#F2600C"/>
<path d="M39.9323 25.4247H47.69V32.7117L39.9323 25.4247Z" fill="#F2600C"/>
<path d="M39.9323 25.4247H47.69V33.6867L39.9323 25.4247Z" fill="#F2600C"/>
<path d="M36.3144 25.4247L14.0771 25.6336L24.2791 46.2305L36.3144 25.4247Z" fill="#F2600C"/>
<path d="M36.3144 25.4247L14.0771 25.6336L24.2791 46.2305L36.3144 25.4247Z" fill="#F2600C"/>
<path d="M46.5869 2.07153H24.5427L18.8383 6.2762L16.8853 12.7716L18.6476 18.9684L23.7861 23.4915H35.6821L46.5869 2.07153Z" fill="#F2600C"/>
<path d="M46.5869 2.07153H24.5427L18.8383 6.2762L16.8853 12.7716L18.6476 18.9684L23.7861 23.4915H35.6821L46.5869 2.07153Z" fill="#F2600C"/>
<path d="M48.0861 1.00049H1V48.0866H48.0861V1.00049Z" stroke="#0D0D0D" stroke-width="2" stroke-miterlimit="10"/>
<path d="M34.929 48.0861C41.3678 48.0861 46.5875 42.8664 46.5875 36.4276C46.5875 29.9888 41.3678 24.7691 34.929 24.7691" stroke="#0D0D0D" stroke-width="2" stroke-miterlimit="10"/>
<path d="M28.657 24.5433C22.1557 24.5433 16.8853 19.2729 16.8853 12.7717C16.8853 6.27042 22.1557 1 28.657 1" stroke="#0D0D0D" stroke-width="2" stroke-miterlimit="10"/>
<path d="M1 1.00049L24.5427 48.086" stroke="#0D0D0D" stroke-width="2" stroke-miterlimit="10"/>
<path d="M48.0855 1.00061L24.5428 48.0861" stroke="#0D0D0D" stroke-width="2" stroke-miterlimit="10"/>
<path d="M1 24.5433H48.0855" stroke="#0D0D0D" stroke-width="2" stroke-miterlimit="10"/>
<path d="M48.0861 1.00049H1V48.0866H48.0861V1.00049Z" stroke="#0D0D0D" stroke-width="2" stroke-miterlimit="10"/>
<path d="M34.929 48.0861C41.3678 48.0861 46.5875 42.8664 46.5875 36.4276C46.5875 29.9888 41.3678 24.7691 34.929 24.7691" stroke="#0D0D0D" stroke-width="2" stroke-miterlimit="10"/>
<path d="M28.657 24.5433C22.1557 24.5433 16.8853 19.2729 16.8853 12.7717C16.8853 6.27042 22.1557 1 28.657 1" stroke="#0D0D0D" stroke-width="2" stroke-miterlimit="10"/>
<path d="M1 1.00049L24.5427 48.086" stroke="#0D0D0D" stroke-width="2" stroke-miterlimit="10"/>
<path d="M48.0855 1.00061L24.5428 48.0861" stroke="#0D0D0D" stroke-width="2" stroke-miterlimit="10"/>
<path d="M1 24.5433H48.0855" stroke="#0D0D0D" stroke-width="2" stroke-miterlimit="10"/>
<path d="M70.1393 43.7969L68.0947 39.1888H68.7438L70.6217 43.4624H70.3148L72.2192 39.1888H72.833L70.7796 43.7969H70.1393Z" fill="white"/>
<path d="M75.5367 43.8409C75.0564 43.8409 74.6358 43.7405 74.2726 43.5384C73.9094 43.3364 73.6257 43.0582 73.4214 42.7049C73.2161 42.3505 73.1145 41.9454 73.1145 41.4894C73.1145 41.0335 73.2128 40.6294 73.4082 40.2783C73.6047 39.9273 73.8729 39.6513 74.2152 39.4492C74.5574 39.2472 74.9416 39.1467 75.3689 39.1467C75.8016 39.1467 76.1869 39.245 76.5225 39.4404C76.8593 39.6369 77.1242 39.9118 77.3174 40.2651C77.5106 40.6195 77.6067 41.0268 77.6067 41.4894C77.6067 41.5192 77.6056 41.549 77.6022 41.581C77.5989 41.6131 77.5978 41.6473 77.5978 41.6815H73.587V41.2167H77.2644L77.0182 41.4011C77.0182 41.0677 76.9465 40.7707 76.803 40.5102C76.6594 40.2496 76.4651 40.0465 76.2189 39.9008C75.9727 39.755 75.689 39.6811 75.3678 39.6811C75.052 39.6811 74.7683 39.7539 74.5166 39.9008C74.2649 40.0476 74.0695 40.2518 73.9281 40.5146C73.7879 40.7773 73.7173 41.0798 73.7173 41.4188V41.5148C73.7173 41.8659 73.7946 42.175 73.9502 42.4411C74.1048 42.7071 74.3212 42.9147 74.5994 43.0637C74.8776 43.2128 75.1944 43.2878 75.5521 43.2878C75.8325 43.2878 76.0953 43.2381 76.3371 43.1388C76.5799 43.0394 76.7886 42.8871 76.9641 42.6828L77.3152 43.0869C77.1099 43.3331 76.8548 43.5197 76.5468 43.6488C76.2432 43.7758 75.9054 43.8409 75.5367 43.8409Z" fill="white"/>
<path d="M78.1609 39.7065V39.1887H81.0136V39.7065H78.1609ZM80.338 43.841C79.9052 43.841 79.5718 43.7239 79.3377 43.4899C79.1037 43.2558 78.9867 42.9257 78.9867 42.4985V38.1719H79.6093V42.4632C79.6093 42.7325 79.6778 42.9401 79.8158 43.0858C79.9538 43.2327 80.1503 43.3055 80.4086 43.3055C80.6835 43.3055 80.912 43.226 81.0931 43.0682L81.3128 43.5153C81.1903 43.6268 81.0423 43.7085 80.8701 43.7615C80.6957 43.8145 80.519 43.841 80.338 43.841Z" fill="white"/>
<path d="M84.234 43.8409C83.7537 43.8409 83.3331 43.7405 82.9699 43.5384C82.6067 43.3364 82.3229 43.0582 82.1187 42.7049C81.9134 42.3505 81.8118 41.9454 81.8118 41.4894C81.8118 41.0335 81.9101 40.6294 82.1055 40.2783C82.3009 39.9273 82.5702 39.6513 82.9125 39.4492C83.2547 39.2472 83.6389 39.1467 84.0662 39.1467C84.4989 39.1467 84.8842 39.245 85.2198 39.4404C85.5566 39.6369 85.8215 39.9118 86.0147 40.2651C86.2079 40.6195 86.304 41.0268 86.304 41.4894C86.304 41.5192 86.3029 41.549 86.2995 41.581C86.2962 41.6131 86.2951 41.6473 86.2951 41.6815H82.2843V41.2167H85.9617L85.7155 41.4011C85.7155 41.0677 85.6438 40.7707 85.5002 40.5102C85.3567 40.2496 85.1624 40.0465 84.9162 39.9008C84.67 39.755 84.3863 39.6811 84.0651 39.6811C83.7493 39.6811 83.4656 39.7539 83.2139 39.9008C82.9622 40.0476 82.7668 40.2518 82.6254 40.5146C82.4852 40.7773 82.4146 41.0798 82.4146 41.4188V41.5148C82.4146 41.8659 82.4919 42.175 82.6475 42.4411C82.8021 42.7071 83.0185 42.9147 83.2967 43.0637C83.5749 43.2128 83.8917 43.2878 84.2494 43.2878C84.5298 43.2878 84.7926 43.2381 85.0344 43.1388C85.2772 43.0394 85.4859 42.8871 85.6614 42.6828L86.0125 43.0869C85.8072 43.3331 85.5521 43.5197 85.2441 43.6488C84.9405 43.7758 84.6027 43.8409 84.234 43.8409Z" fill="white"/>
<path d="M87.578 43.7969V39.1888H88.1753V40.444L88.1134 40.2244C88.2415 39.8733 88.459 39.6061 88.7626 39.4218C89.0673 39.2374 89.4438 39.1458 89.8953 39.1458V39.7518C89.8721 39.7518 89.8478 39.7507 89.8246 39.7474C89.8015 39.7441 89.7772 39.743 89.754 39.743C89.2682 39.743 88.8884 39.8909 88.6136 40.1857C88.3387 40.4816 88.2007 40.9011 88.2007 41.4454V43.7969H87.578Z" fill="white"/>
<path d="M91.9829 43.8409C91.6374 43.8409 91.3382 43.7835 91.0832 43.6698C90.8292 43.5561 90.6338 43.3982 90.4992 43.1962C90.3645 42.9942 90.2971 42.7612 90.2971 42.4985C90.2971 42.2589 90.3545 42.0403 90.4682 41.8449C90.5819 41.6484 90.7696 41.4905 91.0302 41.3713C91.2907 41.2509 91.6396 41.1913 92.079 41.1913H93.6676V41.6561H92.0966C91.6517 41.6561 91.3437 41.7356 91.1704 41.8935C90.9982 42.0513 90.9109 42.2479 90.9109 42.4819C90.9109 42.7458 91.0136 42.9555 91.2179 43.1134C91.4232 43.2713 91.7091 43.3507 92.0779 43.3507C92.4289 43.3507 92.7314 43.2702 92.9865 43.109C93.2415 42.9478 93.4269 42.716 93.544 42.4112L93.6842 42.8418C93.5672 43.1465 93.364 43.3894 93.0748 43.5704C92.7866 43.7493 92.4223 43.8409 91.9829 43.8409ZM93.5716 43.7968V42.7789L93.5451 42.6122V40.9098C93.5451 40.5179 93.4358 40.2165 93.2161 40.0056C92.9964 39.7948 92.6707 39.6899 92.2379 39.6899C91.9399 39.6899 91.6561 39.7396 91.3868 39.8389C91.1174 39.9383 90.8889 40.0697 90.7023 40.2342L90.4219 39.7694C90.6559 39.5707 90.9363 39.4172 91.2642 39.309C91.5921 39.2008 91.9366 39.1467 92.2998 39.1467C92.897 39.1467 93.3574 39.2947 93.682 39.5894C94.0065 39.8853 94.1688 40.3346 94.1688 40.9363V43.7979H93.5716V43.7968Z" fill="white"/>
<path d="M98.215 39.1458C98.5893 39.1458 98.9183 39.2175 99.202 39.361C99.4857 39.5045 99.7076 39.722 99.8688 40.0146C100.03 40.3072 100.111 40.6759 100.111 41.1208V43.798H99.4879V41.1826C99.4879 40.6969 99.3665 40.3303 99.1236 40.0808C98.8807 39.8324 98.5396 39.7077 98.1013 39.7077C97.7734 39.7077 97.4886 39.7739 97.2457 39.9053C97.0029 40.0367 96.8152 40.2277 96.6838 40.4761C96.5524 40.7245 96.4862 41.0247 96.4862 41.3758V43.798H95.8635V39.1888H96.4608V40.4529L96.3636 40.2155C96.5094 39.8821 96.7434 39.6205 97.0658 39.4306C97.387 39.2407 97.7701 39.1458 98.215 39.1458Z" fill="white"/>
<path d="M103.033 43.841C102.653 43.841 102.293 43.787 101.953 43.6788C101.614 43.5706 101.347 43.4348 101.155 43.2703L101.435 42.779C101.623 42.9192 101.863 43.0406 102.155 43.1433C102.448 43.246 102.755 43.2968 103.077 43.2968C103.516 43.2968 103.832 43.2283 104.024 43.0903C104.217 42.9523 104.314 42.7702 104.314 42.5416C104.314 42.3716 104.259 42.2391 104.151 42.142C104.043 42.0448 103.901 41.972 103.725 41.9223C103.55 41.8726 103.353 41.8307 103.137 41.7953C102.92 41.76 102.705 41.7192 102.492 41.6728C102.279 41.6264 102.083 41.5569 101.908 41.4663C101.732 41.3758 101.59 41.2511 101.482 41.0932C101.374 40.9353 101.319 40.7245 101.319 40.4617C101.319 40.21 101.39 39.9848 101.53 39.7861C101.671 39.5873 101.877 39.4306 102.149 39.3169C102.42 39.2032 102.752 39.1458 103.144 39.1458C103.442 39.1458 103.742 39.1855 104.04 39.2639C104.338 39.3434 104.584 39.4471 104.777 39.5752L104.506 40.0753C104.3 39.9351 104.082 39.8335 103.848 39.7728C103.614 39.711 103.38 39.6801 103.145 39.6801C102.73 39.6801 102.425 39.7518 102.228 39.8954C102.032 40.0389 101.934 40.221 101.934 40.444C101.934 40.6196 101.988 40.7576 102.097 40.8569C102.205 40.9563 102.348 41.0336 102.526 41.0899C102.705 41.1451 102.9 41.1903 103.115 41.2257C103.329 41.261 103.542 41.303 103.755 41.3526C103.968 41.4023 104.164 41.4697 104.343 41.5547C104.522 41.6397 104.665 41.76 104.774 41.9146C104.882 42.0691 104.936 42.2734 104.936 42.524C104.936 42.7934 104.861 43.0252 104.712 43.2217C104.563 43.4182 104.347 43.5695 104.063 43.6777C103.78 43.787 103.436 43.841 103.033 43.841Z" fill="white"/>
<path d="M112.257 39.7066V39.1888H115.109V39.7066H112.257ZM113.081 43.7969V38.6103C113.081 38.2007 113.202 37.8706 113.441 37.6189C113.681 37.3672 114.026 37.2413 114.477 37.2413C114.652 37.2413 114.822 37.2645 114.986 37.312C115.149 37.3595 115.287 37.4323 115.399 37.5317L115.188 37.9965C115.1 37.9203 114.998 37.864 114.881 37.8253C114.764 37.7878 114.638 37.7679 114.503 37.7679C114.24 37.7679 114.039 37.8408 113.897 37.9876C113.757 38.1345 113.686 38.3508 113.686 38.6368V39.3389L113.704 39.6282V43.7969H113.081Z" fill="white"/>
<path d="M117.162 43.8409C116.816 43.8409 116.517 43.7835 116.262 43.6698C116.008 43.5561 115.813 43.3982 115.678 43.1962C115.543 42.9942 115.476 42.7612 115.476 42.4985C115.476 42.2589 115.533 42.0403 115.647 41.8449C115.761 41.6484 115.949 41.4905 116.209 41.3713C116.47 41.2509 116.818 41.1913 117.258 41.1913H118.847V41.6561H117.276C116.831 41.6561 116.523 41.7356 116.349 41.8935C116.177 42.0513 116.09 42.2479 116.09 42.4819C116.09 42.7458 116.193 42.9555 116.397 43.1134C116.602 43.2713 116.888 43.3507 117.257 43.3507C117.608 43.3507 117.91 43.2702 118.165 43.109C118.42 42.9478 118.606 42.716 118.723 42.4112L118.863 42.8418C118.746 43.1465 118.543 43.3894 118.254 43.5704C117.966 43.7493 117.601 43.8409 117.162 43.8409ZM118.75 43.7968V42.7789L118.724 42.6122V40.9098C118.724 40.5179 118.615 40.2165 118.395 40.0056C118.175 39.7948 117.85 39.6899 117.417 39.6899C117.119 39.6899 116.835 39.7396 116.566 39.8389C116.296 39.9383 116.068 40.0697 115.881 40.2342L115.601 39.7694C115.835 39.5707 116.115 39.4172 116.443 39.309C116.771 39.2008 117.115 39.1467 117.479 39.1467C118.076 39.1467 118.536 39.2947 118.861 39.5894C119.185 39.8853 119.348 40.3346 119.348 40.9363V43.7979H118.75V43.7968Z" fill="white"/>
<path d="M126.799 39.1458C127.173 39.1458 127.498 39.2175 127.777 39.361C128.055 39.5045 128.271 39.722 128.426 40.0146C128.58 40.3072 128.659 40.6759 128.659 41.1208V43.798H128.036V41.1826C128.036 40.6969 127.92 40.3303 127.689 40.0808C127.459 39.8324 127.132 39.7077 126.711 39.7077C126.396 39.7077 126.122 39.7739 125.891 39.9053C125.66 40.0367 125.481 40.2277 125.356 40.4761C125.23 40.7245 125.167 41.0247 125.167 41.3758V43.798H124.544V41.1826C124.544 40.6969 124.427 40.3303 124.193 40.0808C123.959 39.8324 123.631 39.7077 123.211 39.7077C122.9 39.7077 122.629 39.7739 122.395 39.9053C122.161 40.0367 121.981 40.2277 121.855 40.4761C121.729 40.7245 121.666 41.0247 121.666 41.3758V43.798H121.043V39.1888H121.641V40.4352L121.545 40.2155C121.685 39.8821 121.912 39.6205 122.225 39.4306C122.537 39.2407 122.908 39.1458 123.335 39.1458C123.786 39.1458 124.169 39.2584 124.485 39.4836C124.8 39.7088 125.006 40.0466 125.1 40.497L124.853 40.3999C124.988 40.0256 125.226 39.7231 125.569 39.4913C125.908 39.2606 126.319 39.1458 126.799 39.1458Z" fill="white"/>
<path d="M130.669 38.1709C130.54 38.1709 130.432 38.1267 130.345 38.0395C130.256 37.9523 130.213 37.8463 130.213 37.7238C130.213 37.6012 130.257 37.4974 130.345 37.4124C130.432 37.3274 130.54 37.2855 130.669 37.2855C130.798 37.2855 130.907 37.3263 130.994 37.408C131.081 37.4897 131.125 37.5924 131.125 37.7149C131.125 37.8441 131.083 37.9523 130.998 38.0395C130.913 38.1267 130.804 38.1709 130.669 38.1709ZM130.353 43.7968V39.1888H130.976V43.7968H130.353Z" fill="white"/>
<path d="M132.714 43.7968V37.2844H133.336V43.7968H132.714Z" fill="white"/>
<path d="M135.109 45.5434C134.893 45.5434 134.687 45.5081 134.491 45.4385C134.295 45.3679 134.127 45.263 133.987 45.1228L134.276 44.658C134.393 44.7695 134.52 44.8556 134.658 44.9174C134.796 44.9792 134.949 45.0091 135.118 45.0091C135.323 45.0091 135.5 44.9516 135.649 44.8379C135.798 44.7242 135.941 44.5233 136.075 44.2363L136.374 43.5606L136.444 43.4646L138.34 39.191H138.955L136.646 44.3511C136.517 44.6491 136.376 44.8865 136.22 45.062C136.066 45.2376 135.897 45.3612 135.716 45.4352C135.535 45.507 135.332 45.5434 135.109 45.5434ZM136.339 43.9282L134.215 39.1888H134.864L136.742 43.4193L136.339 43.9282Z" fill="white"/>
<path d="M146.01 39.7066V39.1888H148.863V39.7066H146.01ZM146.835 43.7969V38.6103C146.835 38.2007 146.955 37.8706 147.195 37.6189C147.434 37.3672 147.78 37.2413 148.23 37.2413C148.406 37.2413 148.576 37.2645 148.739 37.312C148.903 37.3595 149.041 37.4323 149.152 37.5317L148.941 37.9965C148.854 37.9203 148.752 37.864 148.635 37.8253C148.517 37.7878 148.392 37.7679 148.257 37.7679C147.994 37.7679 147.792 37.8408 147.652 37.9876C147.512 38.1345 147.441 38.3508 147.441 38.6368V39.3389L147.459 39.6282V43.7969H146.835Z" fill="white"/>
<path d="M149.704 43.7969V39.1888H150.302V40.444L150.24 40.2244C150.368 39.8733 150.585 39.6061 150.889 39.4218C151.194 39.2374 151.57 39.1458 152.022 39.1458V39.7518C151.998 39.7518 151.974 39.7507 151.951 39.7474C151.928 39.7441 151.903 39.743 151.88 39.743C151.395 39.743 151.015 39.8909 150.74 40.1857C150.465 40.4816 150.327 40.9011 150.327 41.4454V43.7969H149.704Z" fill="white"/>
<path d="M153.47 38.1709C153.341 38.1709 153.233 38.1267 153.145 38.0395C153.057 37.9523 153.014 37.8463 153.014 37.7238C153.014 37.6012 153.058 37.4974 153.145 37.4124C153.233 37.3274 153.341 37.2855 153.47 37.2855C153.599 37.2855 153.707 37.3263 153.795 37.408C153.882 37.4897 153.926 37.5924 153.926 37.7149C153.926 37.8441 153.884 37.9523 153.799 38.0395C153.714 38.1267 153.605 38.1709 153.47 38.1709ZM153.154 43.7968V39.1888H153.777V43.7968H153.154Z" fill="white"/>
<path d="M157.472 43.8409C156.992 43.8409 156.571 43.7405 156.208 43.5384C155.845 43.3364 155.561 43.0582 155.357 42.7049C155.151 42.3505 155.05 41.9454 155.05 41.4894C155.05 41.0335 155.148 40.6294 155.344 40.2783C155.539 39.9273 155.808 39.6513 156.151 39.4492C156.493 39.2472 156.877 39.1467 157.304 39.1467C157.737 39.1467 158.122 39.245 158.458 39.4404C158.795 39.6369 159.06 39.9118 159.253 40.2651C159.446 40.6195 159.542 41.0268 159.542 41.4894C159.542 41.5192 159.541 41.549 159.538 41.581C159.534 41.6131 159.533 41.6473 159.533 41.6815H155.522V41.2167H159.2L158.954 41.4011C158.954 41.0677 158.882 40.7707 158.738 40.5102C158.595 40.2496 158.4 40.0465 158.154 39.9008C157.908 39.755 157.624 39.6811 157.303 39.6811C156.987 39.6811 156.704 39.7539 156.452 39.9008C156.2 40.0476 156.005 40.2518 155.863 40.5146C155.723 40.7773 155.653 41.0798 155.653 41.4188V41.5148C155.653 41.8659 155.73 42.175 155.886 42.4411C156.04 42.7071 156.257 42.9147 156.535 43.0637C156.813 43.2128 157.13 43.2878 157.487 43.2878C157.768 43.2878 158.031 43.2381 158.272 43.1388C158.515 43.0394 158.724 42.8871 158.899 42.6828L159.251 43.0869C159.045 43.3331 158.79 43.5197 158.482 43.6488C158.179 43.7758 157.841 43.8409 157.472 43.8409Z" fill="white"/>
<path d="M163.168 39.1458C163.542 39.1458 163.871 39.2175 164.155 39.361C164.438 39.5045 164.66 39.722 164.821 40.0146C164.983 40.3072 165.063 40.6759 165.063 41.1208V43.798H164.44V41.1826C164.44 40.6969 164.319 40.3303 164.076 40.0808C163.833 39.8324 163.492 39.7077 163.054 39.7077C162.726 39.7077 162.441 39.7739 162.198 39.9053C161.955 40.0367 161.769 40.2277 161.636 40.4761C161.505 40.7245 161.439 41.0247 161.439 41.3758V43.798H160.816V39.1888H161.413V40.4529L161.316 40.2155C161.462 39.8821 161.697 39.6205 162.018 39.4306C162.34 39.2407 162.723 39.1458 163.168 39.1458Z" fill="white"/>
<path d="M168.583 43.841C168.143 43.841 167.75 43.7416 167.402 43.5429C167.055 43.3442 166.781 43.0671 166.582 42.7138C166.383 42.3594 166.284 41.9521 166.284 41.4895C166.284 41.0214 166.383 40.6118 166.582 40.2607C166.781 39.9097 167.055 39.6359 167.402 39.4405C167.75 39.244 168.144 39.1468 168.583 39.1468C168.987 39.1468 169.348 39.2373 169.667 39.4184C169.986 39.5994 170.24 39.8644 170.431 40.2122C170.621 40.5599 170.716 40.9861 170.716 41.4895C170.716 41.9874 170.622 42.4113 170.435 42.7624C170.247 43.1135 169.995 43.3806 169.676 43.565C169.357 43.7483 168.992 43.841 168.583 43.841ZM168.627 43.2879C168.955 43.2879 169.248 43.2128 169.509 43.0638C169.769 42.9147 169.974 42.7039 170.124 42.4323C170.273 42.1607 170.348 41.8461 170.348 41.4884C170.348 41.1252 170.273 40.8094 170.124 40.5401C169.975 40.2707 169.769 40.062 169.509 39.913C169.248 39.7639 168.955 39.6889 168.627 39.6889C168.306 39.6889 168.015 39.7639 167.758 39.913C167.501 40.062 167.295 40.2718 167.144 40.5401C166.992 40.8094 166.916 41.1252 166.916 41.4884C166.916 41.845 166.992 42.1596 167.144 42.4323C167.296 42.7039 167.501 42.9147 167.758 43.0638C168.015 43.2128 168.304 43.2879 168.627 43.2879ZM170.364 43.7968V42.4102L170.426 41.4795L170.339 40.5489V37.2844H170.962V43.7968H170.364Z" fill="white"/>
<path d="M173.936 43.841C173.555 43.841 173.196 43.787 172.856 43.6788C172.517 43.5706 172.25 43.4348 172.058 43.2703L172.338 42.779C172.526 42.9192 172.766 43.0406 173.058 43.1433C173.351 43.246 173.658 43.2968 173.98 43.2968C174.419 43.2968 174.735 43.2283 174.927 43.0903C175.121 42.9523 175.217 42.7702 175.217 42.5416C175.217 42.3716 175.162 42.2391 175.054 42.142C174.946 42.0448 174.804 41.972 174.628 41.9223C174.453 41.8726 174.256 41.8307 174.04 41.7953C173.823 41.76 173.608 41.7192 173.395 41.6728C173.182 41.6264 172.987 41.5569 172.811 41.4663C172.635 41.3758 172.493 41.2511 172.385 41.0932C172.277 40.9353 172.223 40.7245 172.223 40.4617C172.223 40.21 172.293 39.9848 172.433 39.7861C172.574 39.5873 172.78 39.4306 173.052 39.3169C173.323 39.2032 173.656 39.1458 174.047 39.1458C174.346 39.1458 174.645 39.1855 174.943 39.2639C175.241 39.3434 175.487 39.4471 175.68 39.5752L175.409 40.0753C175.203 39.9351 174.985 39.8335 174.751 39.7728C174.517 39.711 174.283 39.6801 174.049 39.6801C173.633 39.6801 173.328 39.7518 173.131 39.8954C172.935 40.0389 172.837 40.221 172.837 40.444C172.837 40.6196 172.892 40.7576 173 40.8569C173.108 40.9563 173.251 41.0336 173.429 41.0899C173.608 41.1451 173.803 41.1903 174.018 41.2257C174.231 41.261 174.445 41.303 174.658 41.3526C174.871 41.4023 175.068 41.4697 175.246 41.5547C175.425 41.6397 175.568 41.76 175.677 41.9146C175.785 42.0691 175.839 42.2734 175.839 42.524C175.839 42.7934 175.764 43.0252 175.615 43.2217C175.466 43.4182 175.25 43.5695 174.966 43.6777C174.683 43.787 174.34 43.841 173.936 43.841Z" fill="white"/>
<path d="M78.5065 29.2561L68.0947 5.74536H70.7818L80.5224 27.8794H79.0441L88.8509 5.74536H91.3702L80.9584 29.2561H78.5065Z" fill="white"/>
<path d="M97.2479 27.1066H111.388V29.2561H94.7628V5.74536H110.885V7.89484H97.2479V27.1066ZM96.9786 16.2576H109.406V18.374H96.9786V16.2576Z" fill="white"/>
<path d="M123.714 29.457C121.968 29.457 120.294 29.1711 118.693 28.6003C117.092 28.0295 115.855 27.2965 114.981 26.4L115.955 24.4857C116.783 25.2916 117.897 25.9695 119.297 26.5182C120.696 27.0669 122.168 27.3406 123.714 27.3406C125.192 27.3406 126.396 27.1563 127.324 26.7864C128.253 26.4166 128.936 25.9187 129.373 25.2916C129.81 24.6646 130.028 23.9712 130.028 23.2095C130.028 22.2921 129.764 21.5524 129.238 20.9927C128.712 20.4329 128.023 19.9913 127.173 19.6657C126.322 19.3411 125.381 19.0563 124.352 18.809C123.322 18.5628 122.292 18.3 121.262 18.0196C120.232 17.7403 119.286 17.3649 118.424 16.8946C117.561 16.4243 116.867 15.8028 116.342 15.0311C115.815 14.2583 115.552 13.2459 115.552 11.9918C115.552 10.8282 115.86 9.7584 116.476 8.78467C117.092 7.81095 118.038 7.02711 119.315 6.43316C120.591 5.84031 122.225 5.54333 124.219 5.54333C125.539 5.54333 126.849 5.7277 128.148 6.09754C129.446 6.46738 130.565 6.97632 131.506 7.62547L130.666 9.60715C129.658 8.93592 128.589 8.44354 127.459 8.1289C126.328 7.81536 125.236 7.65859 124.184 7.65859C122.773 7.65859 121.609 7.84959 120.691 8.22936C119.773 8.61024 119.096 9.11918 118.659 9.75729C118.223 10.3954 118.004 11.1174 118.004 11.9233C118.004 12.8419 118.267 13.5804 118.794 14.1402C119.319 14.6999 120.013 15.1371 120.876 15.4495C121.738 15.763 122.684 16.0434 123.714 16.2896C124.744 16.5358 125.769 16.8052 126.788 17.0956C127.807 17.387 128.747 17.7624 129.609 18.2205C130.472 18.6798 131.165 19.2903 131.692 20.051C132.217 20.8127 132.481 21.8085 132.481 23.0406C132.481 24.1821 132.167 25.2408 131.54 26.2146C130.913 27.1883 129.956 27.9721 128.669 28.5661C127.38 29.1611 125.729 29.457 123.714 29.457Z" fill="white"/>
<path d="M142.119 29.2561V7.89484H133.856V5.74536H152.866V7.89484H144.604V29.2561H142.119Z" fill="white"/>
<path d="M151.893 29.2561L162.641 5.74536H165.093L175.84 29.2561H173.22L163.346 7.18939H164.354L154.48 29.2561H151.893ZM156.125 22.9754L156.864 20.9606H170.533L171.272 22.9754H156.125Z" fill="white"/>
</svg>
