<svg width="184" height="64" viewBox="0 0 184 64" fill="none" xmlns="http://www.w3.org/2000/svg">
<path d="M42.4104 9.60441H20.3663L9.44275 9.15582L12.7082 20.3045L14.4705 26.5012L19.6097 31.0244H31.5056L42.4104 9.60441Z" fill="#1A341B"/>
<path d="M42.4104 9.60441H20.3663L9.44275 9.15582L12.7082 20.3045L14.4705 26.5012L19.6097 31.0244H31.5056L42.4104 9.60441Z" fill="#1A341B"/>
<path d="M9.82133 15.8018L8.89966 55.0093L31.4857 54.5421L9.82133 15.8018Z" fill="#1A341B"/>
<path d="M9.82133 15.8018L8.89966 55.0093L31.4857 54.5421L9.82133 15.8018Z" fill="#1A341B"/>
<path d="M8.89966 11.8549V31.4777H20.6707L8.89966 11.8549Z" fill="#F2600C"/>
<path d="M8.89966 11.8549V31.4777H20.6707L8.89966 11.8549Z" fill="#F2600C"/>
<path d="M24.0769 54.671H46.1211L51.8255 50.4663L53.7785 43.9703L52.0162 37.7736L46.8777 33.251H34.9817L24.0769 54.671Z" fill="#1A341B"/>
<path d="M24.0769 54.671H46.1211L51.8255 50.4663L53.7785 43.9703L52.0162 37.7736L46.8777 33.251H34.9817L24.0769 54.671Z" fill="#1A341B"/>
<path d="M55.3587 11.3404L55.6708 30.9608L43.9009 31.1481L55.3587 11.3404Z" fill="#1A341B"/>
<path d="M55.3587 11.3404L55.6708 30.9608L43.9009 31.1481L55.3587 11.3404Z" fill="#1A341B"/>
<path d="M55.1715 47.8618V55.6189H47.8839L55.1715 47.8618Z" fill="#F2600C"/>
<path d="M55.1715 46.5022V55.6189H47.8839L55.1715 46.5022Z" fill="#F2600C"/>
<path d="M47.4137 32.9576H55.1714V40.2446L47.4137 32.9576Z" fill="#F2600C"/>
<path d="M47.4137 32.9576H55.1714V41.2195L47.4137 32.9576Z" fill="#F2600C"/>
<path d="M43.7958 32.9576L21.5586 33.1664L31.7605 53.7633L43.7958 32.9576Z" fill="#F2600C"/>
<path d="M43.7958 32.9576L21.5586 33.1664L31.7605 53.7633L43.7958 32.9576Z" fill="#F2600C"/>
<path d="M54.0684 9.60443H32.0242L26.3198 13.8091L24.3668 20.3045L26.1291 26.5013L31.2677 31.0244H43.1636L54.0684 9.60443Z" fill="#F2600C"/>
<path d="M54.0684 9.60443H32.0242L26.3198 13.8091L24.3668 20.3045L26.1291 26.5013L31.2677 31.0244H43.1636L54.0684 9.60443Z" fill="#F2600C"/>
<path d="M55.5675 8.53333H8.48145V55.6194H55.5675V8.53333Z" stroke="#0D0D0D" stroke-width="2" stroke-miterlimit="10"/>
<path d="M42.4104 55.6189C48.8492 55.6189 54.0689 50.3993 54.0689 43.9604C54.0689 37.5216 48.8492 32.3019 42.4104 32.3019" stroke="#0D0D0D" stroke-width="2" stroke-miterlimit="10"/>
<path d="M36.1385 32.0762C29.6372 32.0762 24.3668 26.8058 24.3668 20.3045C24.3668 13.8033 29.6372 8.53284 36.1385 8.53284" stroke="#0D0D0D" stroke-width="2" stroke-miterlimit="10"/>
<path d="M8.48145 8.53333L32.0242 55.6188" stroke="#0D0D0D" stroke-width="2" stroke-miterlimit="10"/>
<path d="M55.5669 8.53345L32.0242 55.619" stroke="#0D0D0D" stroke-width="2" stroke-miterlimit="10"/>
<path d="M8.48145 32.0762H55.5669" stroke="#0D0D0D" stroke-width="2" stroke-miterlimit="10"/>
<path d="M55.5675 8.53333H8.48145V55.6194H55.5675V8.53333Z" stroke="#0D0D0D" stroke-width="2" stroke-miterlimit="10"/>
<path d="M42.4104 55.6189C48.8492 55.6189 54.0689 50.3993 54.0689 43.9604C54.0689 37.5216 48.8492 32.3019 42.4104 32.3019" stroke="#0D0D0D" stroke-width="2" stroke-miterlimit="10"/>
<path d="M36.1385 32.0762C29.6372 32.0762 24.3668 26.8058 24.3668 20.3045C24.3668 13.8033 29.6372 8.53284 36.1385 8.53284" stroke="#0D0D0D" stroke-width="2" stroke-miterlimit="10"/>
<path d="M8.48145 8.53333L32.0242 55.6188" stroke="#0D0D0D" stroke-width="2" stroke-miterlimit="10"/>
<path d="M55.5669 8.53345L32.0242 55.619" stroke="#0D0D0D" stroke-width="2" stroke-miterlimit="10"/>
<path d="M8.48145 32.0762H55.5669" stroke="#0D0D0D" stroke-width="2" stroke-miterlimit="10"/>
<path d="M77.6208 51.3297L75.5762 46.7216H76.2253L78.1032 50.9952H77.7963L79.7007 46.7216H80.3145L78.2611 51.3297H77.6208Z" fill="white"/>
<path d="M83.0181 51.3738C82.5379 51.3738 82.1173 51.2733 81.754 51.0713C81.3908 50.8692 81.1071 50.591 80.9029 50.2378C80.6975 49.8834 80.5959 49.4782 80.5959 49.0222C80.5959 48.5663 80.6942 48.1622 80.8896 47.8112C81.0861 47.4601 81.3544 47.1841 81.6966 46.9821C82.0389 46.78 82.4231 46.6796 82.8503 46.6796C83.2831 46.6796 83.6684 46.7778 84.004 46.9732C84.3407 47.1697 84.6057 47.4446 84.7989 47.7979C84.9921 48.1523 85.0881 48.5597 85.0881 49.0222C85.0881 49.0521 85.087 49.0819 85.0837 49.1139C85.0804 49.1459 85.0793 49.1801 85.0793 49.2143H81.0685V48.7496H84.7459L84.4997 48.9339C84.4997 48.6005 84.4279 48.3035 84.2844 48.043C84.1409 47.7825 83.9466 47.5793 83.7004 47.4336C83.4542 47.2879 83.1705 47.2139 82.8492 47.2139C82.5335 47.2139 82.2497 47.2868 81.998 47.4336C81.7463 47.5804 81.5509 47.7847 81.4096 48.0474C81.2694 48.3102 81.1987 48.6127 81.1987 48.9516V49.0476C81.1987 49.3987 81.276 49.7078 81.4317 49.9739C81.5862 50.24 81.8026 50.4475 82.0808 50.5965C82.359 50.7456 82.6759 50.8207 83.0336 50.8207C83.314 50.8207 83.5767 50.771 83.8185 50.6716C84.0614 50.5723 84.27 50.4199 84.4456 50.2157L84.7967 50.6197C84.5913 50.8659 84.3363 51.0525 84.0283 51.1817C83.7247 51.3086 83.3869 51.3738 83.0181 51.3738Z" fill="white"/>
<path d="M85.6423 47.2393V46.7215H88.4951V47.2393H85.6423ZM87.8194 51.3738C87.3866 51.3738 87.0532 51.2568 86.8192 51.0227C86.5851 50.7887 86.4681 50.4586 86.4681 50.0313V45.7048H87.0908V49.996C87.0908 50.2654 87.1592 50.4729 87.2972 50.6187C87.4352 50.7655 87.6317 50.8384 87.8901 50.8384C88.165 50.8384 88.3935 50.7589 88.5745 50.601L88.7942 51.0481C88.6717 51.1596 88.5238 51.2413 88.3515 51.2943C88.1771 51.3473 88.0005 51.3738 87.8194 51.3738Z" fill="white"/>
<path d="M91.7155 51.3738C91.2353 51.3738 90.8146 51.2733 90.4514 51.0713C90.0882 50.8692 89.8045 50.591 89.6002 50.2378C89.3949 49.8834 89.2933 49.4782 89.2933 49.0222C89.2933 48.5663 89.3916 48.1622 89.587 47.8112C89.7824 47.4601 90.0518 47.1841 90.394 46.9821C90.7363 46.78 91.1204 46.6796 91.5477 46.6796C91.9805 46.6796 92.3658 46.7778 92.7014 46.9732C93.0381 47.1697 93.303 47.4446 93.4962 47.7979C93.6894 48.1523 93.7855 48.5597 93.7855 49.0222C93.7855 49.0521 93.7844 49.0819 93.7811 49.1139C93.7778 49.1459 93.7767 49.1801 93.7767 49.2143H89.7658V48.7496H93.4433L93.1971 48.9339C93.1971 48.6005 93.1253 48.3035 92.9818 48.043C92.8383 47.7825 92.644 47.5793 92.3978 47.4336C92.1516 47.2879 91.8679 47.2139 91.5466 47.2139C91.2308 47.2139 90.9471 47.2868 90.6954 47.4336C90.4437 47.5804 90.2483 47.7847 90.107 48.0474C89.9668 48.3102 89.8961 48.6127 89.8961 48.9516V49.0476C89.8961 49.3987 89.9734 49.7078 90.1291 49.9739C90.2836 50.24 90.5 50.4475 90.7782 50.5965C91.0564 50.7456 91.3733 50.8207 91.731 50.8207C92.0114 50.8207 92.2741 50.771 92.5159 50.6716C92.7588 50.5723 92.9674 50.4199 93.143 50.2157L93.494 50.6197C93.2887 50.8659 93.0337 51.0525 92.7257 51.1817C92.4221 51.3086 92.0842 51.3738 91.7155 51.3738Z" fill="white"/>
<path d="M95.0596 51.3297V46.7216H95.6568V47.9769L95.595 47.7572C95.7231 47.4061 95.9406 47.139 96.2442 46.9546C96.5489 46.7702 96.9253 46.6786 97.3769 46.6786V47.2847C97.3537 47.2847 97.3294 47.2836 97.3062 47.2803C97.283 47.2769 97.2587 47.2758 97.2355 47.2758C96.7498 47.2758 96.37 47.4238 96.0951 47.7186C95.8202 48.0144 95.6822 48.4339 95.6822 48.9782V51.3297H95.0596Z" fill="white"/>
<path d="M99.4644 51.3738C99.1188 51.3738 98.8196 51.3164 98.5646 51.2026C98.3107 51.0889 98.1153 50.9311 97.9806 50.729C97.8459 50.527 97.7786 50.2941 97.7786 50.0313C97.7786 49.7917 97.836 49.5731 97.9497 49.3777C98.0634 49.1812 98.2511 49.0234 98.5116 48.9041C98.7722 48.7838 99.121 48.7242 99.5604 48.7242H101.149V49.189H99.5781C99.1332 49.189 98.8252 49.2684 98.6518 49.4263C98.4796 49.5842 98.3924 49.7807 98.3924 50.0147C98.3924 50.2786 98.4951 50.4884 98.6993 50.6462C98.9046 50.8041 99.1906 50.8836 99.5593 50.8836C99.9104 50.8836 100.213 50.803 100.468 50.6418C100.723 50.4806 100.908 50.2488 101.025 49.9441L101.166 50.3746C101.049 50.6793 100.845 50.9222 100.556 51.1033C100.268 51.2821 99.9038 51.3738 99.4644 51.3738ZM101.053 51.3296V50.3117L101.027 50.145V48.4427C101.027 48.0507 100.917 47.7493 100.698 47.5385C100.478 47.3276 100.152 47.2227 99.7194 47.2227C99.4213 47.2227 99.1376 47.2724 98.8682 47.3718C98.5988 47.4711 98.3703 47.6025 98.1837 47.767L97.9033 47.3022C98.1374 47.1035 98.4178 46.95 98.7457 46.8419C99.0736 46.7337 99.418 46.6796 99.7812 46.6796C100.378 46.6796 100.839 46.8275 101.163 47.1223C101.488 47.4181 101.65 47.8675 101.65 48.4691V51.3307H101.053V51.3296Z" fill="white"/>
<path d="M105.696 46.6786C106.071 46.6786 106.4 46.7503 106.683 46.8939C106.967 47.0374 107.189 47.2549 107.35 47.5474C107.511 47.84 107.592 48.2087 107.592 48.6536V51.3308H106.969V48.7155C106.969 48.2297 106.848 47.8632 106.605 47.6137C106.362 47.3653 106.021 47.2405 105.583 47.2405C105.255 47.2405 104.97 47.3068 104.727 47.4381C104.484 47.5695 104.297 47.7605 104.165 48.0089C104.034 48.2573 103.968 48.5576 103.968 48.9087V51.3308H103.345V46.7216H103.942V47.9857L103.845 47.7484C103.991 47.415 104.225 47.1533 104.547 46.9634C104.868 46.7735 105.252 46.6786 105.696 46.6786Z" fill="white"/>
<path d="M110.514 51.3739C110.135 51.3739 109.775 51.3198 109.435 51.2116C109.096 51.1034 108.829 50.9676 108.636 50.8031L108.917 50.3118C109.105 50.452 109.344 50.5735 109.637 50.6762C109.929 50.7788 110.236 50.8296 110.559 50.8296C110.998 50.8296 111.314 50.7612 111.506 50.6232C111.699 50.4852 111.795 50.303 111.795 50.0745C111.795 49.9045 111.741 49.772 111.633 49.6748C111.525 49.5777 111.382 49.5048 111.207 49.4551C111.031 49.4055 110.835 49.3635 110.618 49.3282C110.402 49.2929 110.186 49.252 109.973 49.2056C109.76 49.1593 109.565 49.0897 109.389 48.9992C109.214 48.9087 109.071 48.7839 108.963 48.626C108.855 48.4682 108.801 48.2573 108.801 47.9946C108.801 47.7428 108.872 47.5176 109.012 47.3189C109.152 47.1202 109.358 46.9634 109.63 46.8497C109.902 46.736 110.234 46.6786 110.626 46.6786C110.924 46.6786 111.223 46.7183 111.521 46.7967C111.819 46.8762 112.065 46.98 112.259 47.108L111.987 47.6082C111.782 47.4679 111.563 47.3664 111.329 47.3057C111.095 47.2438 110.861 47.2129 110.627 47.2129C110.212 47.2129 109.906 47.2847 109.71 47.4282C109.513 47.5717 109.416 47.7539 109.416 47.9769C109.416 48.1524 109.47 48.2904 109.578 48.3898C109.686 48.4891 109.83 48.5664 110.008 48.6227C110.186 48.6779 110.382 48.7232 110.596 48.7585C110.81 48.7938 111.023 48.8358 111.236 48.8855C111.449 48.9352 111.646 49.0025 111.825 49.0875C112.004 49.1725 112.146 49.2928 112.255 49.4474C112.364 49.602 112.418 49.8062 112.418 50.0568C112.418 50.3262 112.343 50.558 112.194 50.7545C112.045 50.9511 111.828 51.1023 111.544 51.2105C111.262 51.3198 110.917 51.3739 110.514 51.3739Z" fill="white"/>
<path d="M119.738 47.2394V46.7216H122.591V47.2394H119.738ZM120.563 51.3297V46.1431C120.563 45.7335 120.683 45.4034 120.923 45.1517C121.162 44.9 121.508 44.7742 121.958 44.7742C122.134 44.7742 122.304 44.7973 122.467 44.8448C122.631 44.8923 122.769 44.9652 122.88 45.0645L122.669 45.5293C122.581 45.4531 122.48 45.3968 122.362 45.3582C122.245 45.3206 122.12 45.3008 121.985 45.3008C121.721 45.3008 121.52 45.3736 121.379 45.5205C121.239 45.6673 121.168 45.8837 121.168 46.1696V46.8718L121.186 47.161V51.3297H120.563Z" fill="white"/>
<path d="M124.643 51.3738C124.298 51.3738 123.999 51.3164 123.744 51.2026C123.49 51.0889 123.294 50.9311 123.16 50.729C123.025 50.527 122.958 50.2941 122.958 50.0313C122.958 49.7917 123.015 49.5731 123.129 49.3777C123.242 49.1812 123.43 49.0234 123.691 48.9041C123.951 48.7838 124.3 48.7242 124.739 48.7242H126.328V49.189H124.757C124.312 49.189 124.004 49.2684 123.831 49.4263C123.659 49.5842 123.571 49.7807 123.571 50.0147C123.571 50.2786 123.674 50.4884 123.878 50.6462C124.084 50.8041 124.37 50.8836 124.738 50.8836C125.089 50.8836 125.392 50.803 125.647 50.6418C125.902 50.4806 126.087 50.2488 126.204 49.9441L126.345 50.3746C126.228 50.6793 126.024 50.9222 125.735 51.1033C125.447 51.2821 125.083 51.3738 124.643 51.3738ZM126.232 51.3296V50.3117L126.205 50.145V48.4427C126.205 48.0507 126.096 47.7493 125.876 47.5385C125.657 47.3276 125.331 47.2227 124.898 47.2227C124.6 47.2227 124.317 47.2724 124.047 47.3718C123.778 47.4711 123.549 47.6025 123.363 47.767L123.082 47.3022C123.316 47.1035 123.597 46.95 123.925 46.8419C124.253 46.7337 124.597 46.6796 124.96 46.6796C125.557 46.6796 126.018 46.8275 126.342 47.1223C126.667 47.4181 126.829 47.8675 126.829 48.4691V51.3307H126.232V51.3296Z" fill="white"/>
<path d="M134.28 46.6786C134.654 46.6786 134.98 46.7503 135.258 46.8939C135.536 47.0374 135.753 47.2549 135.907 47.5474C136.062 47.84 136.14 48.2087 136.14 48.6536V51.3308H135.518V48.7155C135.518 48.2297 135.402 47.8632 135.171 47.6137C134.94 47.3653 134.613 47.2405 134.193 47.2405C133.877 47.2405 133.603 47.3068 133.373 47.4381C133.142 47.5695 132.963 47.7605 132.837 48.0089C132.711 48.2573 132.648 48.5576 132.648 48.9087V51.3308H132.026V48.7155C132.026 48.2297 131.909 47.8632 131.675 47.6137C131.441 47.3653 131.113 47.2405 130.692 47.2405C130.382 47.2405 130.11 47.3068 129.876 47.4381C129.642 47.5695 129.462 47.7605 129.336 48.0089C129.21 48.2573 129.148 48.5576 129.148 48.9087V51.3308H128.525V46.7216H129.122V47.9681L129.026 47.7484C129.166 47.415 129.394 47.1533 129.706 46.9634C130.019 46.7735 130.39 46.6786 130.817 46.6786C131.267 46.6786 131.65 46.7912 131.966 47.0164C132.282 47.2416 132.487 47.5794 132.581 48.0299L132.335 47.9327C132.469 47.5585 132.708 47.256 133.05 47.0241C133.389 46.7934 133.801 46.6786 134.28 46.6786Z" fill="white"/>
<path d="M138.151 45.7037C138.021 45.7037 137.913 45.6595 137.826 45.5723C137.738 45.4851 137.695 45.3791 137.695 45.2566C137.695 45.134 137.739 45.0303 137.826 44.9453C137.913 44.8603 138.021 44.8183 138.151 44.8183C138.28 44.8183 138.388 44.8591 138.475 44.9408C138.562 45.0225 138.607 45.1252 138.607 45.2478C138.607 45.3769 138.565 45.4851 138.48 45.5723C138.395 45.6595 138.285 45.7037 138.151 45.7037ZM137.835 51.3297V46.7216H138.458V51.3297H137.835Z" fill="white"/>
<path d="M140.195 51.3297V44.8172H140.818V51.3297H140.195Z" fill="white"/>
<path d="M142.591 53.0762C142.375 53.0762 142.168 53.0409 141.973 52.9713C141.776 52.9007 141.608 52.7958 141.468 52.6556L141.758 52.1908C141.875 52.3023 142.001 52.3884 142.139 52.4503C142.277 52.5121 142.431 52.5419 142.6 52.5419C142.804 52.5419 142.982 52.4845 143.131 52.3708C143.28 52.2571 143.422 52.0561 143.557 51.7691L143.855 51.0934L143.926 50.9974L145.821 46.7238H146.436L144.128 51.8839C143.999 52.182 143.857 52.4193 143.702 52.5949C143.547 52.7704 143.378 52.8941 143.197 52.968C143.016 53.0398 142.814 53.0762 142.591 53.0762ZM143.821 51.4611L141.697 46.7216H142.346L144.224 50.9521L143.821 51.4611Z" fill="white"/>
<path d="M153.492 47.2394V46.7216H156.345V47.2394H153.492ZM154.317 51.3297V46.1431C154.317 45.7335 154.437 45.4034 154.676 45.1517C154.916 44.9 155.262 44.7742 155.712 44.7742C155.887 44.7742 156.058 44.7973 156.221 44.8448C156.384 44.8923 156.522 44.9652 156.634 45.0645L156.423 45.5293C156.336 45.4531 156.233 45.3968 156.116 45.3582C155.999 45.3206 155.873 45.3008 155.738 45.3008C155.476 45.3008 155.274 45.3736 155.133 45.5205C154.993 45.6673 154.923 45.8837 154.923 46.1696V46.8718L154.94 47.161V51.3297H154.317Z" fill="white"/>
<path d="M157.186 51.3297V46.7216H157.783V47.9769L157.721 47.7572C157.849 47.4061 158.067 47.139 158.37 46.9546C158.675 46.7702 159.052 46.6786 159.503 46.6786V47.2847C159.48 47.2847 159.456 47.2836 159.432 47.2803C159.409 47.2769 159.385 47.2758 159.362 47.2758C158.876 47.2758 158.496 47.4238 158.221 47.7186C157.946 48.0144 157.808 48.4339 157.808 48.9782V51.3297H157.186Z" fill="white"/>
<path d="M160.952 45.7037C160.822 45.7037 160.714 45.6595 160.627 45.5723C160.539 45.4851 160.496 45.3791 160.496 45.2566C160.496 45.134 160.54 45.0303 160.627 44.9453C160.714 44.8603 160.822 44.8183 160.952 44.8183C161.081 44.8183 161.189 44.8591 161.276 44.9408C161.363 45.0225 161.408 45.1252 161.408 45.2478C161.408 45.3769 161.366 45.4851 161.281 45.5723C161.196 45.6595 161.086 45.7037 160.952 45.7037ZM160.636 51.3297V46.7216H161.258V51.3297H160.636Z" fill="white"/>
<path d="M164.954 51.3738C164.473 51.3738 164.053 51.2733 163.689 51.0713C163.326 50.8692 163.043 50.591 162.838 50.2378C162.633 49.8834 162.531 49.4782 162.531 49.0222C162.531 48.5663 162.63 48.1622 162.825 47.8112C163.02 47.4601 163.29 47.1841 163.632 46.9821C163.974 46.78 164.358 46.6796 164.786 46.6796C165.219 46.6796 165.604 46.7778 165.939 46.9732C166.276 47.1697 166.541 47.4446 166.734 47.7979C166.927 48.1523 167.024 48.5597 167.024 49.0222C167.024 49.0521 167.022 49.0819 167.019 49.1139C167.016 49.1459 167.015 49.1801 167.015 49.2143H163.004V48.7496H166.681L166.435 48.9339C166.435 48.6005 166.363 48.3035 166.22 48.043C166.076 47.7825 165.882 47.5793 165.636 47.4336C165.39 47.2879 165.106 47.2139 164.785 47.2139C164.469 47.2139 164.185 47.2868 163.933 47.4336C163.682 47.5804 163.486 47.7847 163.345 48.0474C163.205 48.3102 163.134 48.6127 163.134 48.9516V49.0476C163.134 49.3987 163.211 49.7078 163.367 49.9739C163.522 50.24 163.738 50.4475 164.016 50.5965C164.294 50.7456 164.611 50.8207 164.969 50.8207C165.249 50.8207 165.512 50.771 165.754 50.6716C165.997 50.5723 166.205 50.4199 166.381 50.2157L166.732 50.6197C166.527 50.8659 166.272 51.0525 165.964 51.1817C165.66 51.3086 165.322 51.3738 164.954 51.3738Z" fill="white"/>
<path d="M170.649 46.6786C171.023 46.6786 171.352 46.7503 171.636 46.8939C171.92 47.0374 172.142 47.2549 172.303 47.5474C172.464 47.84 172.545 48.2087 172.545 48.6536V51.3308H171.922V48.7155C171.922 48.2297 171.8 47.8632 171.558 47.6137C171.315 47.3653 170.974 47.2405 170.535 47.2405C170.207 47.2405 169.923 47.3068 169.68 47.4381C169.437 47.5695 169.25 47.7605 169.118 48.0089C168.986 48.2573 168.92 48.5576 168.92 48.9087V51.3308H168.297V46.7216H168.895V47.9857L168.798 47.7484C168.943 47.415 169.178 47.1533 169.5 46.9634C169.821 46.7735 170.204 46.6786 170.649 46.6786Z" fill="white"/>
<path d="M176.064 51.3738C175.625 51.3738 175.232 51.2745 174.884 51.0758C174.536 50.877 174.262 50.5999 174.064 50.2467C173.865 49.8923 173.766 49.4849 173.766 49.0223C173.766 48.5542 173.865 48.1446 174.064 47.7936C174.262 47.4425 174.536 47.1687 174.884 46.9733C175.232 46.7768 175.626 46.6796 176.064 46.6796C176.468 46.6796 176.829 46.7702 177.148 46.9512C177.467 47.1323 177.721 47.3972 177.912 47.745C178.102 48.0928 178.197 48.5189 178.197 49.0223C178.197 49.5202 178.103 49.9442 177.917 50.2952C177.729 50.6463 177.476 50.9135 177.157 51.0978C176.838 51.2811 176.474 51.3738 176.064 51.3738ZM176.108 50.8207C176.436 50.8207 176.73 50.7457 176.99 50.5966C177.251 50.4476 177.455 50.2367 177.605 49.9651C177.754 49.6936 177.829 49.3789 177.829 49.0212C177.829 48.658 177.754 48.3423 177.605 48.0729C177.456 47.8035 177.251 47.5949 176.99 47.4458C176.73 47.2968 176.436 47.2217 176.108 47.2217C175.787 47.2217 175.497 47.2968 175.239 47.4458C174.982 47.5949 174.777 47.8046 174.626 48.0729C174.473 48.3423 174.397 48.658 174.397 49.0212C174.397 49.3778 174.473 49.6924 174.626 49.9651C174.778 50.2367 174.982 50.4476 175.239 50.5966C175.497 50.7457 175.786 50.8207 176.108 50.8207ZM177.846 51.3297V49.9431L177.908 49.0124L177.821 48.0817V44.8172H178.443V51.3297H177.846Z" fill="white"/>
<path d="M181.417 51.3739C181.037 51.3739 180.678 51.3198 180.338 51.2116C179.999 51.1034 179.732 50.9676 179.54 50.8031L179.82 50.3118C180.008 50.452 180.247 50.5735 180.54 50.6762C180.832 50.7788 181.139 50.8296 181.462 50.8296C181.901 50.8296 182.217 50.7612 182.409 50.6232C182.602 50.4852 182.698 50.303 182.698 50.0745C182.698 49.9045 182.644 49.772 182.536 49.6748C182.428 49.5777 182.285 49.5048 182.11 49.4551C181.934 49.4055 181.738 49.3635 181.521 49.3282C181.305 49.2929 181.09 49.252 180.876 49.2056C180.663 49.1593 180.468 49.0897 180.292 48.9992C180.117 48.9087 179.975 48.7839 179.866 48.626C179.758 48.4682 179.704 48.2573 179.704 47.9946C179.704 47.7428 179.775 47.5176 179.915 47.3189C180.055 47.1202 180.262 46.9634 180.533 46.8497C180.805 46.736 181.137 46.6786 181.529 46.6786C181.827 46.6786 182.126 46.7183 182.424 46.7967C182.722 46.8762 182.969 46.98 183.162 47.108L182.89 47.6082C182.685 47.4679 182.466 47.3664 182.232 47.3057C181.998 47.2438 181.764 47.2129 181.53 47.2129C181.115 47.2129 180.809 47.2847 180.613 47.4282C180.416 47.5717 180.319 47.7539 180.319 47.9769C180.319 48.1524 180.373 48.2904 180.481 48.3898C180.589 48.4891 180.733 48.5664 180.911 48.6227C181.09 48.6779 181.285 48.7232 181.499 48.7585C181.712 48.7938 181.926 48.8358 182.139 48.8855C182.353 48.9352 182.549 49.0025 182.728 49.0875C182.907 49.1725 183.049 49.2928 183.158 49.4474C183.267 49.602 183.321 49.8062 183.321 50.0568C183.321 50.3262 183.246 50.558 183.097 50.7545C182.948 50.9511 182.731 51.1023 182.447 51.2105C182.165 51.3198 181.822 51.3739 181.417 51.3739Z" fill="white"/>
<path d="M85.988 36.7889L75.5762 13.2782H78.2633L88.0039 35.4122H86.5256L96.3324 13.2782H98.8517L88.4399 36.7889H85.988Z" fill="white"/>
<path d="M104.729 34.6394H118.869V36.7889H102.244V13.2782H118.366V15.4277H104.729V34.6394ZM104.46 23.7905H116.888V25.9068H104.46V23.7905Z" fill="white"/>
<path d="M131.196 36.9898C129.449 36.9898 127.775 36.7039 126.175 36.1331C124.574 35.5624 123.336 34.8293 122.463 33.9329L123.437 32.0185C124.265 32.8245 125.379 33.5023 126.778 34.051C128.177 34.5997 129.65 34.8735 131.196 34.8735C132.674 34.8735 133.877 34.6891 134.806 34.3193C135.734 33.9494 136.417 33.4515 136.855 32.8245C137.292 32.1974 137.509 31.5041 137.509 30.7423C137.509 29.8249 137.245 29.0852 136.72 28.5255C136.193 27.9658 135.504 27.5242 134.654 27.1985C133.803 26.8739 132.863 26.5891 131.834 26.3418C130.804 26.0956 129.774 25.8329 128.744 25.5524C127.713 25.2731 126.767 24.8978 125.905 24.4275C125.043 23.9572 124.349 23.3356 123.823 22.5639C123.296 21.7911 123.034 20.7788 123.034 19.5246C123.034 18.361 123.342 17.2912 123.958 16.3175C124.574 15.3438 125.52 14.5599 126.796 13.966C128.072 13.3731 129.706 13.0762 131.7 13.0762C133.02 13.0762 134.331 13.2605 135.629 13.6304C136.927 14.0002 138.047 14.5092 138.988 15.1583L138.147 17.14C137.139 16.4688 136.071 15.9764 134.94 15.6617C133.81 15.3482 132.718 15.1914 131.666 15.1914C130.255 15.1914 129.09 15.3824 128.173 15.7622C127.254 16.1431 126.577 16.652 126.14 17.2901C125.704 17.9282 125.486 18.6503 125.486 19.4562C125.486 20.3747 125.748 21.1133 126.275 21.673C126.8 22.2327 127.495 22.6699 128.357 22.9823C129.219 23.2959 130.165 23.5763 131.196 23.8225C132.226 24.0687 133.25 24.338 134.269 24.6284C135.288 24.9198 136.229 25.2952 137.091 25.7534C137.953 26.2126 138.646 26.8231 139.173 27.5838C139.698 28.3455 139.962 29.3414 139.962 30.5734C139.962 31.7149 139.649 32.7737 139.022 33.7474C138.395 34.7211 137.438 35.505 136.15 36.0989C134.862 36.694 133.21 36.9898 131.196 36.9898Z" fill="white"/>
<path d="M149.6 36.7889V15.4277H141.338V13.2782H160.348V15.4277H152.085V36.7889H149.6Z" fill="white"/>
<path d="M159.375 36.7889L170.122 13.2782H172.574L183.322 36.7889H180.702L170.828 14.7222H171.836L161.962 36.7889H159.375ZM163.607 30.5083L164.345 28.4935H178.015L178.753 30.5083H163.607Z" fill="white"/>
</svg>
